<svg data-v-b90af754="" width="200" height="147" version="1.0" xmlns="http://www.w3.org/2000/svg" xmlns:xlink="http://www.w3.org/1999/xlink"  viewBox="0 0 340.000000 250.000000" preserveAspectRatio="xMidYMid meet" color-interpolation-filters="sRGB" class="el-tooltip" style="margin: auto;">  
        <g data-v-b90af754="" fill="#fe423f" class="bordersvg" transform="translate(20.199996948242188,73.11000061035156)">
        <polyline stroke="#fe423f" stroke-width="3" fill-opacity="0" fill="#fff" points="149.8000030517578,20 149.8000030517578,10 0,0 0,103.77999877929688 149.8000030517578,93.77999877929688 149.8000030517578,83.77999877929688"></polyline> 
        <g transform="translate(0,20)"><rect stroke-width="2" x="0" y="0" width="299.6000061035156" height="63.779998779296875" fill-opacity="0"></rect> <!----> <!----> 
        <g transform="translate(10,3)"><g class="tp-name"><g><path transform="translate(-5.12,56.98)" d="M41.52-43.44C42.56-43.44 43.28-44.16 43.28-44.88L43.28-53.52C43.28-54.24 42.56-54.96 41.52-54.96L6.72-54.96C5.76-54.96 5.12-54.24 5.12-53.52L5.12-1.36C5.12-0.72 5.76 0 6.72 0L15.44 0C16.56 0 17.12-0.72 17.12-1.36L17.12-21.76L37.20-21.76C38.24-21.76 38.80-22.48 38.80-23.12L38.80-31.76C38.80-32.48 38.24-33.12 37.20-33.12L17.12-33.12L17.12-43.44ZM77.60-10.72C69.04-10.72 62-17.04 62-27.44C62-37.12 67.84-44.80 77.60-44.80C81.92-44.80 85.84-42.96 88.88-40C89.44-39.52 90.40-39.52 91.04-40L97.12-46.08C97.60-46.56 97.60-47.60 97.28-48.16C92.32-52.96 85.20-56.16 77.60-56.16C61.28-56.16 49.76-44 49.76-27.44C49.76-10.24 62.32 0.80 77.60 0.80C85.28 0.80 92.16-2.32 97.12-7.12C97.68-7.68 97.68-8.80 97.12-9.28L91.04-15.44C90.40-15.92 89.44-15.92 88.88-15.44C85.84-12.48 81.92-10.72 77.60-10.72ZM139.28-55.36C138.32-55.36 137.60-54.72 137.60-54L137.60-33.76L119.28-33.76L119.28-54C119.28-54.72 118.56-55.36 117.60-55.36L108.88-55.36C107.92-55.36 107.20-54.72 107.20-54L107.20-1.36C107.20-0.72 107.92 0 108.88 0L117.60 0C118.56 0 119.28-0.72 119.28-1.36L119.28-22.48L137.60-22.48L137.60-1.36C137.60-0.72 138.32 0 139.28 0L148.08 0C148.96 0 149.68-0.72 149.68-1.36L149.68-54C149.68-54.72 148.96-55.36 148.08-55.36ZM189.20-0.88L189.20-0.96C189.36-0.40 190.08 0 190.72 0L200.24 0C201.44 0 202.08-0.96 201.68-1.92L180.72-56.08C180.16-57.28 178.16-57.28 177.60-56.08C170.80-38.56 163.44-19.44 156.64-1.92C156.24-0.96 156.80 0 158.16 0L167.60 0C168.32 0 169.04-0.40 169.20-0.96L169.20-0.88L171.20-6.40L187.04-6.40ZM177.20-24.32C178-26.72 178.64-29.04 179.20-32C179.68-29.20 180.32-26.96 181.12-24.32L183.84-16L174.40-16ZM233.44-0.88C233.60-0.48 234.48 0 234.96 0L244.56 0C245.84 0 246.40-0.96 246.00-1.92L241.12-12.56C239.44-16.08 237.60-20.16 235.92-23.76C241.36-25.92 245.68-30.32 245.68-38.64C245.68-55.20 229.76-55.36 226.48-55.36L209.12-55.36C208.16-55.36 207.52-54.72 207.52-54L207.52-1.36C207.52-0.72 208.16 0 209.12 0L217.84 0C218.88 0 219.60-0.72 219.60-1.36L219.60-22.16L223.68-22.16ZM219.60-44.08L226.48-44.08C227.92-44.08 233.60-43.52 233.60-38.40C233.60-33.20 228.48-32.80 226.48-32.80L219.60-32.80ZM284.72-53.52C284.72-54.24 284.08-54.96 283.04-54.96L252.48-54.96C251.52-54.96 250.80-54.24 250.80-53.52L250.80-45.52C250.80-44.80 251.52-44.24 252.48-44.24L261.84-44.24L261.84-1.36C261.84-0.72 262.32 0 263.44 0L272.16 0C273.20 0 273.76-0.72 273.76-1.36L273.76-44.24L283.04-44.24C284.08-44.24 284.72-44.80 284.72-45.52Z"></path>
        </g> <!---->
        </g> <!---->
        </g></g></g></svg>